<svg width="48" height="45" viewBox="0 0 48 45" fill="none" xmlns="http://www.w3.org/2000/svg">
<rect width="48" height="45" rx="6" fill="#212125"/>
<g clip-path="url(#clip0_203_76)">
<path d="M31.3222 23.5418C30.8111 22.8808 30.0398 22.4269 29.0085 22.1802C30.3219 21.5102 30.899 20.3731 30.7406 18.7688C30.6876 18.187 30.5268 17.6828 30.2579 17.2554C29.9887 16.8279 29.6255 16.4843 29.1669 16.2243C28.7086 15.964 28.2102 15.7659 27.6728 15.6292C27.1352 15.4926 26.5181 15.3934 25.8217 15.3318V12H23.7858V15.2392C23.4333 15.2392 22.8956 15.248 22.1729 15.2657V12H20.1367V15.3318C19.8458 15.3407 19.4184 15.3451 18.8543 15.3451L16.0514 15.3318V17.5002H17.5189C18.1888 17.5002 18.581 17.7999 18.6956 18.3992V22.1938C18.7838 22.1938 18.8543 22.1984 18.9072 22.2072H18.6956V27.5219C18.6251 27.9714 18.3696 28.1963 17.9288 28.1963H16.4614L16.0515 30.6159H18.6958C18.8633 30.6159 19.1055 30.6181 19.423 30.6221C19.7403 30.6265 19.9781 30.6287 20.1368 30.6287V34.0001H22.1734V30.6684C22.5435 30.6774 23.0811 30.6817 23.7862 30.6817V34.0001H25.8222V30.6287C26.5451 30.5935 27.1863 30.5278 27.7458 30.4305C28.3055 30.3332 28.8411 30.1814 29.3522 29.9741C29.8633 29.7671 30.2907 29.5091 30.6344 29.2006C30.9783 28.8924 31.2623 28.5 31.4874 28.0239C31.7119 27.5479 31.8553 26.997 31.9168 26.371C32.0318 25.1462 31.8334 24.203 31.3222 23.5418ZM22.2125 17.6452C22.2743 17.6452 22.4483 17.643 22.7348 17.6385C23.0214 17.634 23.2593 17.6296 23.4488 17.6252C23.6383 17.6208 23.8939 17.6319 24.2158 17.6583C24.5375 17.6847 24.8085 17.7201 25.0288 17.7641C25.2491 17.8081 25.4917 17.8808 25.7559 17.9822C26.0205 18.0835 26.2319 18.2069 26.3904 18.3523C26.5492 18.4977 26.6836 18.6829 26.7936 18.9077C26.9039 19.1324 26.959 19.3902 26.959 19.6811C26.959 19.9279 26.9194 20.1527 26.8401 20.3555C26.7611 20.5582 26.6418 20.728 26.4833 20.8646C26.3248 21.0012 26.1614 21.1203 25.9939 21.2216C25.8266 21.3229 25.6126 21.4045 25.3527 21.4661C25.0928 21.5279 24.8659 21.5763 24.6721 21.6115C24.4781 21.6468 24.2358 21.6711 23.9449 21.6843C23.6539 21.6974 23.4335 21.7064 23.2837 21.7108C23.1338 21.7151 22.929 21.7151 22.6689 21.7108C22.4087 21.7064 22.2568 21.7041 22.2127 21.7041V17.6452H22.2125V17.6452ZM27.7723 26.6488C27.6884 26.8517 27.5806 27.0281 27.4485 27.178C27.3161 27.3276 27.1419 27.4599 26.9261 27.5744C26.7103 27.6891 26.5008 27.7815 26.2982 27.852C26.0954 27.9228 25.8507 27.9842 25.5645 28.0373C25.2776 28.0902 25.0266 28.1274 24.8104 28.1496C24.5946 28.1717 24.3369 28.1892 24.0371 28.2026C23.7375 28.2155 23.5038 28.2223 23.3364 28.2223C23.1689 28.2223 22.9573 28.2199 22.7017 28.2155C22.4459 28.2114 22.283 28.2092 22.2124 28.2092V23.7402C22.2829 23.7402 22.4922 23.7359 22.8405 23.7269C23.1888 23.718 23.4729 23.7139 23.6932 23.7139C23.9136 23.7139 24.2178 23.7269 24.6058 23.7535C24.9934 23.7798 25.3195 23.8193 25.5842 23.8722C25.8485 23.9252 26.137 24.0066 26.4501 24.1169C26.7629 24.227 27.0164 24.3614 27.2104 24.52C27.4044 24.679 27.5673 24.8814 27.6995 25.1283C27.832 25.375 27.8981 25.6571 27.8981 25.9745C27.898 26.2215 27.8562 26.446 27.7723 26.6488Z" fill="white"/>
</g>
<defs>
<clipPath id="clip0_203_76">
<rect width="22" height="22" fill="white" transform="translate(13 12)"/>
</clipPath>
</defs>
</svg>
