<svg width="48" height="45" viewBox="0 0 48 45" fill="none" xmlns="http://www.w3.org/2000/svg">
<rect width="48" height="45" rx="6" fill="#212125"/>
<g clip-path="url(#clip0_203_78)">
<path d="M32.036 25.5346C31.2997 25.1308 30.4986 24.9438 29.7096 24.95L29.7163 24.9462C28.6338 24.9586 27.7459 24.1167 27.7331 23.0661C27.7206 22.0294 28.5641 21.1776 29.6254 21.1422V21.1417L29.6234 21.1407C30.4263 21.1368 31.2386 20.9326 31.9786 20.5056C34.1914 19.2284 34.9189 16.4517 33.6034 14.3036C32.2876 12.1554 29.4274 11.4492 27.2145 12.7264C25.0017 14.0035 24.2743 16.7802 25.5899 18.9284C26.1378 19.8235 25.8349 20.9803 24.9129 21.5126C24.004 22.0371 22.8337 21.7584 22.2754 20.8933L22.2749 20.8935V20.8959C21.8726 20.2216 21.2864 19.6391 20.5371 19.2281C18.2959 17.9988 15.4521 18.766 14.1858 20.942C12.9195 23.1176 13.7101 25.8782 15.9515 27.1074C18.1929 28.3367 21.0363 27.5695 22.3027 25.3935C22.3104 25.3804 22.3172 25.3668 22.3247 25.3536V25.3568L22.3251 25.357C22.8631 24.4787 24.0282 24.1744 24.949 24.6794C25.883 25.1917 26.2122 26.3418 25.6846 27.2483C24.4182 29.4243 25.2089 32.1847 27.4502 33.4138C29.6915 34.6433 32.5352 33.8759 33.8015 31.6999C35.0676 29.5242 34.2773 26.7639 32.036 25.5346Z" fill="white"/>
</g>
<defs>
<clipPath id="clip0_203_78">
<rect width="22" height="22" fill="white" transform="translate(13 12)"/>
</clipPath>
</defs>
</svg>
